<?xml version="1.0" standalone="no"?>
<!DOCTYPE svg PUBLIC "-//W3C//DTD SVG 20010904//EN"
 "http://www.w3.org/TR/2001/REC-SVG-20010904/DTD/svg10.dtd">
<svg version="1.0" xmlns="http://www.w3.org/2000/svg"
 width="390.000000pt" height="508.000000pt" viewBox="0 0 390.000000 508.000000"
 preserveAspectRatio="xMidYMid meet">

<g transform="translate(0.000000,508.000000) scale(0.100000,-0.100000)"
fill="#000000" stroke="none">
<path d="M1959 4816 c-2 -2 -33 -6 -69 -7 -35 -1 -88 -8 -117 -15 -78 -18
-260 -88 -273 -105 -3 -3 -43 -33 -90 -66 -90 -64 -126 -98 -132 -123 -2 -8
-5 -17 -8 -20 -18 -17 -60 -89 -60 -101 0 -7 -12 -39 -26 -69 -14 -30 -26 -75
-28 -100 -2 -25 -9 -76 -16 -114 -14 -75 -6 -281 12 -312 3 -5 8 -36 12 -69 9
-82 16 -115 25 -115 10 0 32 58 47 124 8 34 29 83 49 114 20 29 37 63 37 75 0
36 20 120 34 147 18 36 97 115 111 112 7 -2 10 3 7 12 -5 14 31 56 50 56 5 0
6 3 3 6 -9 9 34 41 86 63 29 13 81 21 153 26 60 4 125 10 144 14 19 4 49 6 65
5 54 -3 200 -6 210 -4 22 5 46 -1 41 -9 -4 -5 2 -7 12 -4 10 2 24 -3 31 -11 8
-9 18 -16 23 -16 17 0 127 -100 133 -120 3 -11 9 -19 13 -19 4 1 16 0 27 -1
14 -1 10 -5 -14 -11 -18 -6 -31 -12 -28 -15 3 -3 22 -1 44 5 25 7 39 7 41 1 2
-6 19 -10 38 -10 28 0 36 -5 44 -26 6 -14 8 -29 6 -33 -3 -4 -1 -13 4 -21 4
-7 4 -23 0 -35 -5 -13 -5 -26 1 -32 5 -5 12 -37 15 -71 4 -39 14 -68 25 -81
11 -11 19 -27 19 -35 0 -8 5 -18 11 -21 26 -17 56 -159 38 -182 -12 -14 -89
-18 -89 -5 0 4 -9 8 -20 8 -27 0 -25 -3 10 -21 17 -9 30 -23 30 -33 0 -12 2
-14 8 -4 10 15 42 6 42 -12 0 -7 -4 -16 -9 -21 -6 -6 -2 -19 10 -34 20 -25 21
-23 24 24 4 89 5 95 20 95 27 0 37 42 51 225 6 85 13 137 19 153 3 7 0 23 -7
35 -7 12 -13 27 -14 34 -1 6 -7 28 -14 48 -7 20 -10 45 -7 56 3 10 2 19 -3 19
-4 0 -10 12 -13 28 -3 15 -9 36 -13 46 -5 13 -4 17 3 13 7 -4 10 3 9 18 0 14
-4 25 -8 25 -5 0 -8 5 -8 11 0 6 -11 20 -25 31 -30 24 -32 38 -4 38 12 0 17 4
13 11 -3 6 -15 8 -26 6 -16 -4 -17 -3 -7 9 9 11 7 14 -10 14 -30 0 -63 19 -55
31 3 6 -1 9 -9 7 -9 -2 -16 1 -15 6 0 5 -7 13 -16 18 -9 5 -16 15 -16 23 0 7
-13 27 -30 43 -16 17 -30 39 -30 49 0 14 -2 15 -9 4 -6 -10 -20 2 -52 48 -24
33 -47 61 -52 61 -4 0 -5 -6 -1 -12 7 -11 -13 3 -73 52 -20 17 -112 50 -138
50 -13 0 -26 4 -29 9 -6 9 -179 15 -187 7z"/>
<path d="M1522 3788 c-4 -3 -23 -8 -43 -11 -50 -6 -105 -34 -133 -68 -28 -33
-43 -36 -62 -11 -13 16 -13 16 -14 -1 0 -10 -4 -16 -9 -13 -5 4 -7 -3 -4 -14
3 -11 9 -20 13 -20 10 0 7 -26 -3 -36 -4 -4 -7 -18 -7 -31 0 -19 4 -22 23 -18
32 8 48 -7 53 -51 9 -74 13 -81 54 -98 22 -9 48 -16 58 -15 9 0 -2 6 -26 14
-71 22 -72 24 -72 148 0 120 7 136 60 137 14 0 31 4 38 9 8 5 30 4 50 0 21 -5
99 -15 175 -22 112 -10 137 -10 133 0 -3 7 1 13 9 13 8 0 15 9 15 21 0 11 5
17 10 14 19 -12 10 7 -12 25 -16 13 -48 21 -103 25 -116 10 -195 11 -203 3z
m125 -72 c4 -3 -26 -6 -65 -6 -40 0 -72 3 -72 8 0 8 128 7 137 -2z m-317 -81
c0 -8 -7 -15 -15 -15 -8 0 -15 7 -15 15 0 8 7 15 15 15 8 0 15 -7 15 -15z"/>
<path d="M2258 3783 c-96 -12 -138 -30 -138 -61 0 -10 4 -10 16 2 21 22 27 20
14 -3 -5 -11 -10 -22 -10 -24 0 -6 22 -3 35 4 6 4 24 5 42 4 17 -2 62 5 99 15
41 11 71 15 74 9 4 -5 30 -10 60 -10 58 -2 115 -28 125 -58 9 -28 34 -22 30 8
-1 14 -3 32 -4 38 0 7 -19 24 -42 38 -51 33 -75 42 -65 27 8 -13 -20 -6 -42
11 -18 14 -84 15 -194 0z"/>
<path d="M2133 3650 c-13 -5 -23 -11 -23 -12 0 -2 55 -1 122 1 99 3 114 6 78
12 -61 10 -150 10 -177 -1z"/>
<path d="M1913 3613 c-7 -2 -13 -11 -13 -19 0 -8 -11 -27 -25 -42 -29 -31 -30
-35 -11 -51 25 -21 1 -66 -47 -87 -35 -16 -66 -19 -197 -18 -113 0 -143 -2
-110 -9 59 -11 287 -3 324 12 31 13 57 41 50 53 -3 5 0 8 6 8 6 0 8 5 5 10 -3
6 -1 10 5 10 6 0 9 8 6 18 -4 10 1 27 9 38 16 22 20 48 5 39 -5 -3 -10 1 -10
9 0 13 13 16 71 16 l71 0 -5 -27 c-6 -31 1 -55 14 -47 5 3 9 -4 9 -14 0 -22
27 -92 36 -92 3 0 3 24 0 53 -4 30 -3 44 2 33 6 -13 11 -16 15 -9 4 6 0 19 -9
28 -12 12 -15 26 -10 53 l5 37 -92 2 c-51 1 -98 -1 -104 -4z m167 -44 c0 -11
-4 -17 -10 -14 -5 3 -10 15 -10 26 0 11 5 17 10 14 6 -3 10 -15 10 -26z"/>
<path d="M1542 3586 c-57 -24 -119 -76 -91 -76 8 0 25 -9 37 -20 12 -12 22
-16 22 -10 0 11 22 9 31 -4 4 -4 9 -4 13 2 3 6 -9 15 -28 22 l-34 11 24 24
c31 31 64 49 64 36 0 -12 44 -61 55 -61 4 0 5 7 1 15 -3 10 1 15 14 15 23 0
35 16 18 23 -10 4 -9 8 2 16 11 8 16 6 20 -4 4 -12 8 -11 17 4 10 16 9 20 -10
25 -44 12 -103 5 -155 -18z m98 -16 c0 -5 -4 -10 -10 -10 -5 0 -10 5 -10 10 0
6 5 10 10 10 6 0 10 -4 10 -10z m-22 -18 c6 -18 -15 -14 -22 4 -4 10 -1 14 6
12 6 -2 14 -10 16 -16z"/>
<path d="M2251 3596 l-25 -14 32 -7 c30 -6 45 -25 21 -25 -8 0 -8 -4 1 -14 25
-31 38 -4 31 67 -1 11 -34 8 -60 -7z"/>
<path d="M1202 3545 c3 -25 2 -45 -3 -45 -5 0 -25 15 -45 32 -24 22 -33 26
-24 12 7 -11 25 -29 41 -40 15 -10 31 -28 35 -39 7 -22 8 -21 20 73 3 23 9 40
15 37 5 -4 9 -1 9 4 0 6 -12 11 -26 11 -26 0 -26 -2 -22 -45z"/>
<path d="M2432 3551 c7 -12 16 -21 20 -21 18 0 6 -20 -19 -33 -26 -14 -26 -15
-5 -21 12 -4 27 -4 34 0 7 4 23 9 36 10 32 4 36 9 22 34 -11 20 -25 28 -78 45
-22 6 -22 5 -10 -14z"/>
<path d="M2604 3562 c-6 -4 -16 -17 -22 -29 -10 -17 -9 -25 5 -38 16 -16 17
-16 30 1 24 32 13 83 -13 66z"/>
<path d="M2752 3523 c-20 -25 -22 -37 -20 -153 l2 -125 5 128 c3 70 11 131 16
135 18 13 38 42 28 42 -5 0 -19 -12 -31 -27z"/>
<path d="M2326 3513 c-6 -14 -5 -15 5 -6 7 7 10 15 7 18 -3 3 -9 -2 -12 -12z"/>
<path d="M2636 3480 c-10 -71 -40 -137 -68 -146 -13 -4 -68 -8 -123 -8 l-100
0 64 -9 c81 -12 167 -1 191 23 11 11 24 38 30 62 7 24 18 53 26 66 11 17 12
27 5 36 -6 7 -8 16 -4 19 3 4 2 7 -4 7 -6 0 -13 -22 -17 -50z"/>
<path d="M1201 3424 c0 -11 3 -14 6 -6 3 7 2 16 -1 19 -3 4 -6 -2 -5 -13z"/>
<path d="M2110 3403 c0 -17 24 -32 76 -48 73 -22 88 -17 19 7 -33 11 -68 27
-77 35 -10 9 -18 11 -18 6z"/>
<path d="M2278 3333 c6 -2 18 -2 25 0 6 3 1 5 -13 5 -14 0 -19 -2 -12 -5z"/>
<path d="M1858 3143 c-29 -7 -20 -22 18 -29 41 -7 70 10 44 26 -16 10 -33 11
-62 3z"/>
<path d="M2061 3137 c-6 -8 -8 -17 -4 -20 18 -19 100 4 88 24 -9 14 -71 11
-84 -4z"/>
<path d="M1735 2906 c-11 -8 -25 -12 -31 -9 -7 2 -14 0 -18 -5 -6 -9 15 -8 52
3 12 4 22 11 22 16 0 12 -3 11 -25 -5z"/>
<path d="M1825 2840 c-11 -5 -36 -9 -55 -9 -47 -2 -70 -16 -38 -24 34 -10 78
-8 78 2 0 5 19 12 43 16 23 4 49 11 57 16 20 11 -58 11 -85 -1z"/>
<path d="M1988 2843 c7 -3 16 -2 19 1 4 3 -2 6 -13 5 -11 0 -14 -3 -6 -6z"/>
<path d="M2105 2840 c-3 -6 4 -10 17 -10 13 0 32 -7 42 -15 20 -15 63 -20 90
-9 27 10 18 23 -13 18 -16 -3 -46 2 -66 11 -43 18 -61 19 -70 5z"/>
<path d="M1346 2589 c-9 -12 -33 -53 -53 -91 l-35 -71 21 -141 c12 -77 26
-161 31 -186 5 -25 15 -112 21 -195 l10 -150 77 -70 c110 -99 168 -162 212
-225 21 -31 50 -64 66 -75 16 -11 48 -40 72 -64 l44 -44 34 39 c101 112 144
162 170 194 46 56 114 121 191 183 72 57 106 93 62 63 -50 -32 -149 -50 -284
-50 -152 0 -222 19 -388 103 -156 80 -210 128 -225 201 -46 211 -47 231 -24
352 27 137 38 248 26 248 -5 0 -18 -9 -28 -21z"/>
<path d="M2491 2370 l1 -65 10 54 c7 37 7 56 -1 64 -8 8 -11 -7 -10 -53z"/>
<path d="M1660 2390 c0 -3 18 -16 40 -29 22 -12 40 -19 40 -14 0 12 -20 39
-20 28 0 -5 -5 -3 -10 5 -9 15 -50 23 -50 10z"/>
<path d="M2316 2387 c3 -10 9 -15 12 -12 3 3 0 11 -7 18 -10 9 -11 8 -5 -6z"/>
<path d="M2277 2366 c-4 -10 -1 -13 9 -9 15 6 19 23 5 23 -5 0 -11 -7 -14 -14z"/>
<path d="M2228 2354 c-13 -12 -105 -30 -123 -24 -11 4 -26 3 -32 -2 -8 -6 -13
-6 -13 -1 0 5 -51 9 -114 9 -62 1 -122 4 -131 8 -19 7 -38 -11 -28 -27 3 -4
62 -8 132 -7 166 2 173 2 166 -10 -4 -6 4 -9 19 -8 20 2 23 5 13 17 -10 12 -9
13 10 3 17 -10 32 -8 77 9 31 12 56 26 56 30 0 10 -24 12 -32 3z"/>
<path d="M1758 2343 c6 -2 9 -10 6 -15 -4 -7 -2 -8 4 -4 18 11 14 26 -5 25
-11 0 -13 -3 -5 -6z"/>
<path d="M1798 2293 c7 -3 16 -2 19 1 4 3 -2 6 -13 5 -11 0 -14 -3 -6 -6z"/>
<path d="M2353 2003 c-45 -88 -56 -133 -34 -133 8 0 93 222 87 227 -2 2 -25
-41 -53 -94z"/>
<path d="M1049 1694 c-117 -25 -119 -26 -119 -45 0 -11 5 -19 10 -19 6 0 10 7
10 15 0 8 5 15 10 15 6 0 10 -8 10 -17 0 -15 2 -14 15 3 13 17 14 17 15 2 0
-10 5 -18 10 -18 6 0 9 5 8 11 -5 19 20 21 25 2 4 -17 5 -17 6 1 1 12 6 16 16
13 8 -4 17 -3 19 2 3 4 25 7 50 6 38 0 46 3 46 17 0 10 -8 18 -17 19 -10 0
-27 2 -39 3 -11 1 -45 -3 -75 -10z"/>
<path d="M905 1661 c-3 -6 -16 -11 -27 -11 -27 0 -15 -13 13 -15 12 -1 23 4
26 12 7 17 -3 28 -12 14z"/>
<path d="M2478 1659 c-2 -7 -2 -24 0 -36 4 -22 5 -22 18 -6 12 17 13 16 14 -6
0 -17 4 -22 15 -17 10 4 19 -2 25 -17 7 -17 9 -18 9 -4 1 9 5 17 10 17 5 0 12
-8 14 -17 4 -17 5 -17 6 0 0 9 5 17 11 17 5 0 14 -8 19 -17 10 -17 10 -17 11
0 0 19 20 24 20 5 0 -7 5 -5 11 5 6 10 9 20 7 21 -3 4 -143 55 -169 63 -9 3
-19 -1 -21 -8z"/>
<path d="M1072 1550 c0 -19 2 -27 5 -17 2 9 2 25 0 35 -3 9 -5 1 -5 -18z"/>
<path d="M1102 1530 c0 -14 2 -19 5 -12 2 6 2 18 0 25 -3 6 -5 1 -5 -13z"/>
<path d="M1130 1506 c0 -8 5 -18 10 -21 6 -3 10 1 10 9 0 8 -4 18 -10 21 -5 3
-10 -1 -10 -9z"/>
<path d="M1172 1470 c0 -14 2 -19 5 -12 2 6 2 18 0 25 -3 6 -5 1 -5 -13z"/>
<path d="M3881 894 c0 -11 3 -14 6 -6 3 7 2 16 -1 19 -3 4 -6 -2 -5 -13z"/>
<path d="M3700 320 c0 -5 5 -10 11 -10 5 0 7 5 4 10 -3 6 -8 10 -11 10 -2 0
-4 -4 -4 -10z"/>
<path d="M3676 275 c-3 -8 -1 -17 3 -20 5 -3 11 2 15 10 3 8 1 17 -3 20 -5 3
-11 -2 -15 -10z"/>
<path d="M3650 225 c0 -8 -4 -23 -9 -33 -6 -9 -24 -48 -42 -87 -18 -38 -36
-71 -41 -73 -14 -6 -9 -32 7 -32 16 0 85 130 85 161 0 10 5 19 10 19 6 0 10
14 10 30 0 17 -4 30 -10 30 -5 0 -10 -7 -10 -15z"/>
</g>
</svg>
